<svg width="40" height="44" viewBox="0 0 40 44" fill="none" xmlns="http://www.w3.org/2000/svg">
<path d="M10.4756 39.6848C8.64359 37.722 6.51721 35.7919 4.88153 33.5019C2.95142 30.7867 2.32986 27.548 2.29714 24.2112C2.26443 22.0849 2.32986 19.9585 2.29714 17.8321C2.26443 16.6217 2.72243 16.0328 4.03097 16.0328C12.9291 16.0656 21.7945 16.0656 30.6926 16.0328C32.1647 16.0328 32.7535 16.7525 32.7535 18.1592C32.9825 18.1919 33.1788 18.2901 33.4078 18.2901C38.642 17.9302 40.7684 22.4447 39.7543 26.9592C38.8056 31.1138 35.5015 33.4692 31.2487 33.3384C30.8234 33.3384 30.2673 33.4365 30.0056 33.7309C28.1736 35.661 26.3744 37.6893 24.5424 39.7175C27.2249 39.7175 30.1365 39.6848 33.0153 39.7502C33.6695 39.7829 34.3238 40.1755 34.9781 40.4045C34.6182 41.0915 34.4219 42.0075 33.8658 42.4C33.1461 42.8907 32.1647 43.1197 31.2814 43.1197C22.187 43.1852 13.0599 43.1852 3.96554 43.087C2.75514 43.087 1.54474 42.4 0.432472 41.8112C0.105335 41.6476 -0.123662 40.6662 0.0726196 40.2409C0.203474 39.9138 1.02131 39.6848 1.54473 39.6521C4.5871 39.6521 7.72761 39.6848 10.4756 39.6848ZM32.9171 21.3979C32.6227 24.473 32.3283 27.3845 32.0338 30.3287C34.8472 30.6558 37.1372 28.1369 37.2353 25.0945C37.3334 22.3793 35.8941 21.2343 32.9171 21.3979Z" fill="white"/>
<path d="M20.4859 0.00320072C22.1216 -0.0622265 22.7431 0.886471 22.0234 1.83517C20.5186 3.8307 20.9112 5.59723 22.2524 7.46191C23.2665 8.90131 23.7245 10.5697 22.5796 12.14C22.1216 12.7615 21.1074 13.2849 20.355 13.2849C19.439 13.2522 19.1773 12.2054 19.7662 11.5511C20.8457 10.4061 20.3877 9.52287 19.7008 8.54146C18.3595 6.61136 17.7052 4.51768 18.7521 2.29316C19.21 1.34446 20.0279 0.559333 20.4859 0.00320072Z" fill="white"/>
<path d="M13.5506 13.4158C12.5365 13.3831 11.8822 12.3362 12.6019 11.5838C13.7469 10.3734 13.158 9.49015 12.4711 8.44332C10.5737 5.59723 10.541 3.27456 12.4383 0.984608C12.8636 0.46119 14.1067 -0.0622258 14.5647 0.199483C15.5134 0.722901 15.0882 1.63888 14.4666 2.3913C13.387 3.76527 13.4525 5.10653 14.4012 6.57864C15.0881 7.65819 15.677 8.8686 15.9387 10.1117C16.2658 11.6493 14.7937 13.4812 13.5506 13.4158Z" fill="white"/>
</svg>
