<?xml version="1.0" encoding="utf-8"?>
<!-- Generator: Adobe Illustrator 24.1.2, SVG Export Plug-In . SVG Version: 6.00 Build 0)  -->
<svg version="1.1" id="Camada_1" xmlns="http://www.w3.org/2000/svg" xmlns:xlink="http://www.w3.org/1999/xlink" x="0px" y="0px"
	 viewBox="0 0 104.1 124" style="enable-background:new 0 0 104.1 124;" xml:space="preserve">
<style type="text/css">
	.st0{fill-rule:evenodd;clip-rule:evenodd;fill:#FCDA33;}
</style>
<path class="st0" d="M37.9,2.2c7.7,0,13.9,6.2,13.9,13.9S45.6,30,37.9,30S24,23.8,24,16.1C24,8.5,30.2,2.2,37.9,2.2"/>
<path class="st0" d="M73.4,44.7c0.3-0.4,0.6-1.2,1.2-1.3c0.7-0.2,6.6,0.2,8,0.2c0.1,0,0.8,0,0.8,0.2c0,0.3-5.8,8.6-6.9,10.4
	c-0.7,1-1.2,0.9-2.3,0.9c-2.4,0.1-4.8,0.2-7.2,0.4c-0.9,0-0.8-0.1-0.3-0.8C69,51.4,71.2,48,73.4,44.7"/>
<path class="st0" d="M71.5,45.2c-1.6,2.4-3.3,4.8-4.9,7.3c-0.4,0.7-0.5,0.5-1.3,0.4c-0.3-0.1-1-0.2-1.3-0.3c-0.2-0.1,0-0.4,0.1-0.5
	c2.5-3.9,5.3-7.7,7.9-11.6c0.5-0.7,0.7-0.6,1.5-0.3c2.6,0.8,5.3,1.5,7.9,2.2c0.9,0.2-2.1-0.1-2.2-0.2c-1.5-0.1-2.9-0.3-4.4-0.4
	c-0.9-0.1-0.9,0.2-1.4,0.8C72.7,43.4,72.1,44.3,71.5,45.2"/>
<path class="st0" d="M71.2,35.3c0.4-0.6,0.6-0.5,1.1-0.1c2.4,1.6,4.8,3.1,7.1,4.8c1.8,1.3,1.6,1.1-0.3,0.4c-2.1-0.8-4.2-1.7-6.3-2.5
	c-0.7-0.3-0.6,0-1,0.6c-2.3,3.5-4.8,7-7.1,10.5v0.1c-0.4,0.6-0.6,0.5-1.2,0.3c-0.2-0.1-1-0.4-1.1-0.6C62.4,48.1,70.2,36.8,71.2,35.3
	"/>
<path class="st0" d="M74.2,121.2H86C116.4,55.8,99,54,41.6,57.9C41.2,83.7,114.4,12.2,74.2,121.2"/>
<path class="st0" d="M13.8,121.2c0.6-36,29.9-41.5,39.7,0h9.8c-17.5-99.1-49.5,36.1-49.5-83.5l-9.9,0.2v83.3H13.8z"/>
<path class="st0" d="M42.2,44.9c-4.9,0.2-6.8,5-8,9.1c-18.1,61.1-16.5-2.7-0.9-14.3c11-8.2,32.6,17.2,27.3,13.4
	C56.1,50,47.4,44.7,42.2,44.9"/>
</svg>
