<svg width="40" height="35" viewBox="0 0 40 35" fill="none" xmlns="http://www.w3.org/2000/svg">
<path d="M21.7594 0C27.5003 0.114246 33.6696 3.11321 38.8678 8.25428C39.0677 8.45421 39.2391 8.6827 39.4104 8.91119C40.2102 9.99653 40.2102 11.139 39.3248 11.8245C38.268 12.6528 37.4111 12.2243 36.6114 11.3389C34.2123 8.6827 31.299 6.74052 27.9858 5.45525C19.1889 2.05643 11.4487 4.14142 4.50828 10.1679C4.07986 10.5392 3.68 10.9391 3.3087 11.396C2.53753 12.2815 1.68069 12.5956 0.738158 11.7673C-0.17581 10.9391 -0.261495 9.88229 0.595351 8.99688C1.88062 7.68305 3.22301 6.36922 4.67964 5.25532C9.24949 1.79938 14.362 0.0285615 21.7594 0Z" fill="#222222"/>
<path d="M21.9023 12.31C15.5902 12.3671 11.8772 13.938 8.73542 17.0227C8.307 17.4511 7.76432 18.0223 7.27877 18.0223C6.62186 18.0223 5.82215 17.6796 5.36517 17.194C4.62257 16.4514 5.02243 15.566 5.65078 14.9091C8.6783 11.7673 12.1628 9.4253 16.5898 8.6827C23.2161 7.56881 28.8427 9.59667 33.6411 14.1665C33.8124 14.3379 33.9838 14.5093 34.1266 14.6806C34.8978 15.5946 34.9549 16.8227 34.2409 17.5082C33.4983 18.2223 32.4415 18.108 31.4704 17.194C28.2715 14.1665 24.5299 12.2815 21.9023 12.31Z" fill="#222222"/>
<path d="M20.1029 16.7085C23.6731 16.7656 26.5864 18.3079 29.0712 20.7071C29.8995 21.5068 29.9852 22.535 29.1569 23.3633C28.3 24.2202 27.4146 24.0202 26.5292 23.2776C22.7877 20.1644 18.8462 19.736 15.1617 22.0209C14.5334 22.4208 13.9622 22.9349 13.3909 23.449C12.5626 24.2202 11.6487 24.3344 10.8775 23.5347C10.0778 22.7064 10.192 21.7639 10.9632 20.8785C13.2767 18.2508 16.6184 16.7085 20.1029 16.7085Z" fill="#222222"/>
<path d="M24.1301 30.1896C24.1301 32.6173 22.2164 34.7023 19.9601 34.7023C17.5324 34.7023 15.7901 32.7601 15.7901 30.1039C15.7901 27.6476 17.7037 25.5626 19.9601 25.5626C22.1308 25.5912 24.1301 27.7904 24.1301 30.1896Z" fill="#222222"/>
</svg>
