<svg width="40" height="49" viewBox="0 0 40 49" fill="none" xmlns="http://www.w3.org/2000/svg">
<path d="M19.9731 24.497C17.3071 24.497 14.6717 24.5277 12.0057 24.497C9.67684 24.4664 8.26724 23.21 8.35917 20.9117C8.57367 15.7636 8.81882 10.6155 9.33976 5.49808C9.70748 2.00472 12.1896 0.0741803 15.7443 0.0128934C18.6554 -0.0483936 21.5665 0.135467 24.4777 0.0128934C27.4501 -0.109681 30.5757 1.79022 30.9741 5.98837C31.4031 10.5543 31.7095 15.1508 31.924 19.7167C32.0772 23.1794 30.637 24.5277 27.1743 24.5277C24.7841 24.497 22.3939 24.497 19.9731 24.497Z" fill="#222222"/>
<path d="M18.6554 42.4235C15.5604 43.496 12.6799 44.446 9.8301 45.4878C9.43174 45.641 9.06401 46.1926 8.94143 46.6216C8.69629 47.5716 8.32857 48.2764 7.22541 48.1845C6.15288 48.0925 5.99966 47.2345 5.93838 46.4071C5.75452 44.4153 6.5206 43.3121 8.48178 42.638C11.301 41.6574 14.1202 40.6155 17.0007 39.7575C18.257 39.3898 18.778 38.8382 18.6248 37.5205C18.5328 36.5706 18.5941 35.59 18.5941 34.4255C15.7443 34.4255 12.9864 34.3949 10.2591 34.4255C8.75757 34.4562 7.43991 34.2723 6.39803 33.0159C6.21417 32.7708 5.78516 32.6789 5.47872 32.6176C3.24175 32.2805 1.89344 30.779 1.8628 28.4194C1.83215 25.8147 1.8628 23.21 1.8628 20.5747C0.728988 20.4521 -0.159673 20.1457 0.024188 18.828C0.208049 17.541 1.18863 17.4797 2.2305 17.5103C2.9353 17.541 3.67075 17.541 4.37555 17.5103C5.41743 17.4797 6.39803 17.7248 6.3061 18.8893C6.27546 19.5328 5.50936 20.115 4.80456 20.636C5.04971 23.731 3.67076 27.1324 5.69323 30.2887C6.67382 27.8065 8.60436 27.5308 10.78 27.5308C16.9087 27.5614 23.0374 27.5614 29.1661 27.5308C31.3112 27.5308 33.1498 27.8372 33.8852 30.3193C34.0385 30.3499 34.2223 30.35 34.3755 30.3806C34.7739 29.6145 35.4174 28.8484 35.4787 28.0517C35.6625 26.2744 35.54 24.4664 35.54 22.6891C35.54 21.6472 35.9077 20.4827 34.4675 19.9312C34.1917 19.8086 34.0078 18.8586 34.1304 18.4296C34.253 18.0313 34.8965 17.6329 35.3255 17.541C36.1835 17.4184 37.0415 17.541 37.9302 17.5103C38.972 17.4797 39.8607 17.7555 39.9833 18.8893C40.1365 20.0844 39.2172 20.4215 38.0221 20.4827C38.0221 23.0262 38.0221 25.5696 38.0221 28.113C38.0221 30.8402 36.9496 32.0966 34.2836 32.5869C34.0385 32.6176 33.732 32.6789 33.6094 32.8627C32.5369 34.4868 30.8822 34.4255 29.2274 34.3949C26.684 34.3642 24.1406 34.3949 21.444 34.3949C21.444 35.7738 21.3214 37.0609 21.5053 38.2866C21.5972 38.7769 22.302 39.3591 22.8536 39.5736C25.7954 40.6768 28.7984 41.6574 31.7708 42.6993C33.5482 43.3121 34.682 45.5798 33.9465 47.2652C33.7626 47.7248 32.9353 48.1232 32.4143 48.1232C32.016 48.1232 31.2499 47.3877 31.2805 47.0506C31.4031 45.7943 30.637 45.4878 29.7177 45.1814C27.0211 44.2927 24.3245 43.3428 21.444 42.3622C21.444 43.7718 21.444 45.0588 21.444 46.3458C21.444 47.3571 21.0762 48.0619 20.0037 48.1538C18.8086 48.2457 18.5941 47.3877 18.5635 46.4378C18.6554 45.212 18.6554 43.9557 18.6554 42.4235Z" fill="#222222"/>
</svg>
