<svg width="870" height="288" viewBox="0 0 870 288" fill="none" xmlns="http://www.w3.org/2000/svg">
<g opacity="0.02">
<path d="M197.4 4H249.4V284H197.4V4ZM52.6 284H0.600006V4H52.6V284ZM201.4 164H48.2V119.6H201.4V164Z" fill="black"/>
<path d="M324.428 284V4H455.628C489.228 4 514.828 10.6667 532.428 24C550.028 37.0667 558.828 54.6667 558.828 76.8C558.828 91.7333 555.361 104.533 548.428 115.2C541.495 125.6 532.161 133.733 520.428 139.6C508.961 145.2 496.428 148 482.828 148L490.028 133.6C505.761 133.6 519.895 136.533 532.428 142.4C544.961 148 554.828 156.267 562.028 167.2C569.495 178.133 573.228 191.733 573.228 208C573.228 232 564.028 250.667 545.628 264C527.228 277.333 499.895 284 463.628 284H324.428ZM376.428 243.2H460.428C479.895 243.2 494.828 240 505.228 233.6C515.628 227.2 520.828 216.933 520.828 202.8C520.828 188.933 515.628 178.8 505.228 172.4C494.828 165.733 479.895 162.4 460.428 162.4H372.428V122H450.028C468.161 122 482.028 118.8 491.628 112.4C501.495 106 506.428 96.4 506.428 83.6C506.428 70.5333 501.495 60.8 491.628 54.4C482.028 48 468.161 44.8 450.028 44.8H376.428V243.2Z" fill="black"/>
<path d="M758.325 288C736.992 288 717.125 284.533 698.725 277.6C680.592 270.4 664.725 260.4 651.125 247.6C637.792 234.533 627.392 219.2 619.925 201.6C612.458 184 608.725 164.8 608.725 144C608.725 123.2 612.458 104 619.925 86.4C627.392 68.8 637.925 53.6 651.525 40.8C665.125 27.7333 680.992 17.7333 699.125 10.8C717.258 3.6 737.125 0 758.725 0C781.658 0 802.592 4 821.525 12C840.458 19.7333 856.458 31.3333 869.525 46.8L835.925 78.4C825.792 67.4667 814.458 59.3333 801.925 54C789.392 48.4 775.792 45.6 761.125 45.6C746.458 45.6 732.992 48 720.725 52.8C708.725 57.6 698.192 64.4 689.125 73.2C680.325 82 673.392 92.4 668.325 104.4C663.525 116.4 661.125 129.6 661.125 144C661.125 158.4 663.525 171.6 668.325 183.6C673.392 195.6 680.325 206 689.125 214.8C698.192 223.6 708.725 230.4 720.725 235.2C732.992 240 746.458 242.4 761.125 242.4C775.792 242.4 789.392 239.733 801.925 234.4C814.458 228.8 825.792 220.4 835.925 209.2L869.525 241.2C856.458 256.4 840.458 268 821.525 276C802.592 284 781.525 288 758.325 288Z" fill="black"/>
</g>
</svg>
