<?xml version="1.0" encoding="utf-8"?>
<!-- Generator: Adobe Illustrator 24.1.2, SVG Export Plug-In . SVG Version: 6.00 Build 0)  -->
<svg version="1.1" id="Camada_1" xmlns="http://www.w3.org/2000/svg" xmlns:xlink="http://www.w3.org/1999/xlink" x="0px" y="0px"
	 viewBox="0 0 309.3 138.2" style="enable-background:new 0 0 309.3 138.2;" xml:space="preserve">
<style type="text/css">
	.st0{fill:#FFFFFF;}
	.st1{fill:#FCFCFC;}
	.st2{fill-rule:evenodd;clip-rule:evenodd;fill:#FCDA32;}
</style>
<g>
	<path class="st0" d="M124.4,112.5V51.3h11.3v25.2h30.1V51.3h11.3v61.1h-11.3V86.4h-30.1v26.1H124.4z"/>
</g>
<g>
	<path class="st0" d="M190,112.5V51.3h28.6c11.6,0,17.4,4.7,17.4,14.2c0,7-3.8,11.9-11.4,14.9c8.1,1.5,12.1,6.1,12.1,13.9
		c0,12.1-6.4,18.1-19.1,18.1H190z M217.2,102.6c5,0,7.5-2.6,7.5-7.7c0-6.4-3.7-9.5-11.2-9.5h-3.4v-7.3c9.4-1.6,14.1-5.5,14.1-11.8
		c0-3.4-2.1-5.1-6.3-5.1h-16.6v41.5H217.2z"/>
	<path class="st0" d="M295.2,109.9c-5.3,2-11.3,3-18,3c-21.9,0-32.9-10.6-32.9-31.8c0-20.1,11-30.1,32.9-30.1c6.7,0,12.7,1,18,3
		v10.3c-5.3-2.3-11-3.4-17.1-3.4c-14.7,0-22,6.8-22,20.3c0,14.7,7.3,22,22,22c6.1,0,11.8-1.1,17.1-3.4V109.9z"/>
</g>
<g>
	<path class="st1" d="M126.1,130.8c-0.6-0.3-1-0.8-1.3-1.3c-0.3-0.6-0.5-1.2-0.5-2c0-0.7,0.2-1.3,0.5-1.9s0.8-1.1,1.3-1.4
		c0.6-0.3,1.3-0.5,2-0.5c0.8,0,1.5,0.2,2.1,0.6c0.6,0.4,1.1,0.9,1.3,1.5l-1.4,0.4c-0.2-0.4-0.5-0.7-0.9-0.9
		c-0.4-0.2-0.8-0.3-1.2-0.3c-0.5,0-0.9,0.1-1.3,0.3c-0.4,0.2-0.6,0.5-0.8,0.9c-0.2,0.4-0.3,0.8-0.3,1.3c0,0.5,0.1,1,0.3,1.3
		s0.5,0.7,0.8,0.8c0.4,0.2,0.8,0.3,1.3,0.3c0.5,0,0.9-0.1,1.2-0.4c0.4-0.2,0.7-0.6,0.9-0.9l1.4,0.4c-0.2,0.4-0.5,0.8-0.8,1.2
		c-0.3,0.3-0.7,0.6-1.2,0.8c-0.5,0.2-1,0.3-1.5,0.3C127.3,131.3,126.6,131.1,126.1,130.8z"/>
</g>
<g>
	<path class="st1" d="M138.1,131.3c-0.7,0-1.3-0.2-1.8-0.5c-0.5-0.4-0.9-0.8-1.2-1.4c-0.3-0.6-0.4-1.2-0.4-1.8
		c0-0.7,0.1-1.3,0.4-1.9s0.7-1.1,1.2-1.4c0.5-0.4,1.2-0.5,1.9-0.5c0.1,0,0.2,0,0.2,0c0.6,0,1.1,0.2,1.5,0.5s0.8,0.8,1.1,1.3l0-1.7
		h1.4v7.3H141v-1.6c-0.5,1.1-1.4,1.7-2.6,1.8C138.3,131.3,138.2,131.3,138.1,131.3z M136.4,128.8c0.2,0.4,0.5,0.7,0.8,0.9
		c0.4,0.2,0.8,0.3,1.3,0.3s0.9-0.1,1.3-0.3c0.4-0.2,0.6-0.5,0.8-0.9c0.2-0.4,0.3-0.8,0.3-1.2c0-0.4-0.1-0.8-0.3-1.2
		c-0.2-0.4-0.5-0.7-0.8-0.9c-0.4-0.2-0.8-0.4-1.3-0.4c-0.5,0-0.9,0.1-1.3,0.3c-0.4,0.2-0.6,0.5-0.8,0.9s-0.3,0.8-0.3,1.3
		C136.1,128,136.2,128.4,136.4,128.8z"/>
</g>
<g>
	<path class="st1" d="M148.3,130.8c-0.4-0.3-0.8-0.7-1-1.2v1.5h-1.4v-10.4h1.4v4.4c0.3-0.5,0.7-0.8,1.1-1.1s0.9-0.4,1.5-0.4
		c0.1,0,0.1,0,0.2,0c0.7,0,1.4,0.2,1.9,0.5c0.5,0.4,1,0.8,1.3,1.4s0.4,1.2,0.4,1.9c0,0.7-0.1,1.3-0.4,1.9c-0.3,0.6-0.7,1.1-1.2,1.4
		c-0.5,0.4-1.2,0.5-1.9,0.5c-0.1,0-0.2,0-0.3,0C149.2,131.3,148.7,131.1,148.3,130.8z M147.6,128.7c0.2,0.4,0.5,0.7,0.9,0.9
		c0.4,0.2,0.8,0.3,1.3,0.3c0.5,0,0.9-0.1,1.3-0.3c0.4-0.2,0.7-0.5,0.9-0.9c0.2-0.4,0.3-0.8,0.3-1.3c0-0.5-0.1-0.9-0.3-1.3
		s-0.5-0.7-0.9-0.9c-0.4-0.2-0.8-0.3-1.3-0.3c-0.5,0-0.9,0.1-1.3,0.3c-0.4,0.2-0.7,0.5-0.9,0.9s-0.3,0.8-0.3,1.2
		C147.3,127.8,147.4,128.3,147.6,128.7z"/>
</g>
<g>
	<path class="st1" d="M157,120.9c0.2-0.2,0.4-0.2,0.6-0.2c0.2,0,0.4,0.1,0.6,0.2s0.2,0.4,0.2,0.6c0,0.2-0.1,0.4-0.2,0.6
		c-0.2,0.2-0.4,0.2-0.6,0.2c-0.2,0-0.4-0.1-0.6-0.2c-0.2-0.2-0.2-0.4-0.2-0.6C156.8,121.3,156.8,121.1,157,120.9z M156.9,123.8h1.5
		l0,7.3h-1.5L156.9,123.8z"/>
</g>
<g>
	<path class="st1" d="M161.7,123.8h1.4v1.1c0.2-0.3,0.5-0.6,0.9-0.8c0.4-0.2,0.8-0.4,1.2-0.4c0.6,0,1.2,0.1,1.7,0.4
		c0.5,0.3,0.9,0.7,1.1,1.2c0.3,0.5,0.4,1.1,0.4,1.8v4.1H167l0-4.1c0-0.5-0.1-0.8-0.3-1.1c-0.2-0.3-0.4-0.5-0.7-0.7
		c-0.3-0.2-0.6-0.2-1-0.2c-0.3,0-0.7,0.1-1,0.2c-0.3,0.2-0.5,0.4-0.7,0.7c-0.2,0.3-0.3,0.6-0.3,1v4.2h-1.4L161.7,123.8z"/>
</g>
<g>
	<path class="st1" d="M173.5,130.8c-0.6-0.3-1.1-0.8-1.4-1.4c-0.3-0.6-0.5-1.2-0.5-1.9c0-0.7,0.2-1.4,0.5-1.9s0.8-1,1.4-1.4
		c0.6-0.3,1.3-0.5,2-0.5c0.8,0,1.4,0.2,2,0.5c0.6,0.4,1,0.9,1.4,1.5c0.3,0.6,0.5,1.3,0.5,2.1h-6.3c0,0.4,0.1,0.7,0.3,1.1
		c0.2,0.3,0.5,0.6,0.9,0.8c0.4,0.2,0.8,0.3,1.3,0.3c0.5,0,0.9-0.1,1.3-0.4c0.4-0.3,0.7-0.6,0.9-1l1.4,0.4c-0.2,0.4-0.5,0.8-0.8,1.2
		c-0.4,0.4-0.8,0.6-1.2,0.8s-1,0.3-1.6,0.3C174.8,131.3,174.1,131.1,173.5,130.8z M177.7,126.7c-0.1-0.5-0.4-1-0.7-1.3
		s-0.9-0.5-1.4-0.5c-0.6,0-1.1,0.2-1.4,0.5c-0.4,0.3-0.6,0.7-0.7,1.3H177.7z"/>
</g>
<g>
	<path class="st1" d="M183.8,131c-0.4-0.2-0.7-0.5-0.9-0.8c-0.2-0.4-0.3-0.8-0.3-1.2h1.4c0,0.3,0.1,0.5,0.3,0.7s0.5,0.2,0.8,0.2
		c0.3,0,0.5-0.1,0.7-0.2c0.2-0.2,0.3-0.4,0.3-0.6c0-0.2-0.1-0.3-0.2-0.5c-0.1-0.1-0.2-0.2-0.4-0.3c-0.2-0.1-0.4-0.2-0.7-0.3
		l-0.3-0.1c-0.4-0.2-0.8-0.3-1-0.4s-0.5-0.3-0.6-0.6c-0.2-0.3-0.3-0.6-0.3-1.1c0-0.4,0.1-0.8,0.3-1.1c0.2-0.3,0.5-0.6,0.9-0.8
		c0.4-0.2,0.8-0.3,1.2-0.3c0.5,0,0.9,0.1,1.3,0.3c0.4,0.2,0.7,0.5,0.9,0.8c0.2,0.4,0.3,0.8,0.3,1.2l-1.4,0c0-0.3-0.1-0.5-0.3-0.7
		s-0.4-0.3-0.8-0.3c-0.3,0-0.6,0.1-0.8,0.2c-0.2,0.2-0.3,0.4-0.3,0.6c0,0.2,0.1,0.4,0.2,0.6c0.1,0.1,0.3,0.2,0.5,0.3
		s0.4,0.2,0.8,0.2c0.4,0.1,0.8,0.2,1.1,0.4c0.3,0.1,0.6,0.4,0.8,0.7c0.2,0.3,0.3,0.7,0.3,1.2c0,0.4-0.1,0.8-0.3,1.1
		c-0.2,0.3-0.5,0.6-0.9,0.7c-0.4,0.2-0.8,0.3-1.2,0.3C184.6,131.3,184.2,131.2,183.8,131z"/>
</g>
<g>
	<path class="st1" d="M194.3,123.8h1.4v1.5c0.3-0.5,0.6-0.9,1-1.2c0.4-0.3,0.9-0.5,1.4-0.5c0.2,0,0.3,0,0.3,0c0.7,0,1.3,0.2,1.8,0.5
		c0.5,0.4,0.9,0.8,1.2,1.4c0.3,0.6,0.4,1.2,0.4,1.9c0,0.7-0.1,1.3-0.4,1.9c-0.3,0.6-0.7,1-1.2,1.4c-0.5,0.3-1.1,0.5-1.8,0.5
		c-0.1,0-0.2,0-0.2,0c-0.5,0-1-0.2-1.5-0.4c-0.4-0.3-0.8-0.6-1.1-1.1v4h-1.4V123.8z M196.1,128.8c0.2,0.4,0.5,0.7,0.8,0.9
		c0.4,0.2,0.8,0.3,1.2,0.3c0.5,0,0.9-0.1,1.2-0.3c0.4-0.2,0.6-0.5,0.8-0.9c0.2-0.4,0.3-0.8,0.3-1.3s-0.1-0.9-0.3-1.3
		c-0.2-0.4-0.5-0.7-0.8-0.9c-0.4-0.2-0.8-0.3-1.2-0.3c-0.4,0-0.9,0.1-1.2,0.4c-0.4,0.2-0.6,0.6-0.9,1s-0.3,0.8-0.3,1.2
		C195.8,128,195.9,128.4,196.1,128.8z"/>
</g>
<g>
	<path class="st1" d="M208.6,131.3c-0.7,0-1.3-0.2-1.8-0.5c-0.5-0.4-0.9-0.8-1.2-1.4c-0.3-0.6-0.4-1.2-0.4-1.8
		c0-0.7,0.1-1.3,0.4-1.9s0.7-1.1,1.2-1.4c0.5-0.4,1.2-0.5,1.9-0.5c0.1,0,0.2,0,0.2,0c0.6,0,1.1,0.2,1.5,0.5s0.8,0.8,1.1,1.3l0-1.7
		h1.4v7.3h-1.4v-1.6c-0.5,1.1-1.4,1.7-2.6,1.8C208.8,131.3,208.7,131.3,208.6,131.3z M206.9,128.8c0.2,0.4,0.5,0.7,0.8,0.9
		c0.4,0.2,0.8,0.3,1.3,0.3s0.9-0.1,1.3-0.3c0.4-0.2,0.6-0.5,0.8-0.9c0.2-0.4,0.3-0.8,0.3-1.2c0-0.4-0.1-0.8-0.3-1.2
		c-0.2-0.4-0.5-0.7-0.8-0.9c-0.4-0.2-0.8-0.4-1.3-0.4c-0.5,0-0.9,0.1-1.3,0.3c-0.4,0.2-0.6,0.5-0.8,0.9s-0.3,0.8-0.3,1.3
		C206.6,128,206.7,128.4,206.9,128.8z"/>
</g>
<g>
	<path class="st1" d="M216.4,123.8h1.4v1c0.2-0.4,0.4-0.6,0.7-0.8c0.3-0.2,0.6-0.3,0.9-0.3c0.4,0,0.8,0.1,1.1,0.3
		c0.3,0.2,0.6,0.5,0.8,0.9c0.2,0.4,0.3,0.8,0.3,1.3h-1.4c0-0.4-0.2-0.6-0.4-0.9c-0.2-0.2-0.5-0.3-0.9-0.3c-0.2,0-0.4,0.1-0.6,0.2
		c-0.2,0.1-0.3,0.3-0.5,0.5c-0.1,0.2-0.2,0.4-0.2,0.6l0,4.9h-1.4L216.4,123.8z"/>
</g>
<g>
	<path class="st1" d="M228.1,131.3c-0.7,0-1.3-0.2-1.8-0.5c-0.5-0.4-0.9-0.8-1.2-1.4c-0.3-0.6-0.4-1.2-0.4-1.8
		c0-0.7,0.1-1.3,0.4-1.9s0.7-1.1,1.2-1.4c0.5-0.4,1.2-0.5,1.9-0.5c0.1,0,0.2,0,0.2,0c0.6,0,1.1,0.2,1.5,0.5s0.8,0.8,1.1,1.3l0-1.7
		h1.4v7.3H231v-1.6c-0.5,1.1-1.4,1.7-2.6,1.8C228.3,131.3,228.2,131.3,228.1,131.3z M226.4,128.8c0.2,0.4,0.5,0.7,0.8,0.9
		c0.4,0.2,0.8,0.3,1.3,0.3s0.9-0.1,1.3-0.3c0.4-0.2,0.6-0.5,0.8-0.9c0.2-0.4,0.3-0.8,0.3-1.2c0-0.4-0.1-0.8-0.3-1.2
		c-0.2-0.4-0.5-0.7-0.8-0.9c-0.4-0.2-0.8-0.4-1.3-0.4c-0.5,0-0.9,0.1-1.3,0.3c-0.4,0.2-0.6,0.5-0.8,0.9s-0.3,0.8-0.3,1.3
		C226.1,128,226.2,128.4,226.4,128.8z"/>
</g>
<g>
	<path class="st1" d="M241.1,130.8c-0.6-0.3-1.1-0.8-1.4-1.4c-0.3-0.6-0.5-1.2-0.5-1.9c0-0.7,0.2-1.4,0.5-1.9s0.8-1,1.4-1.4
		c0.6-0.3,1.3-0.5,2-0.5c0.8,0,1.4,0.2,2,0.5c0.6,0.4,1,0.9,1.4,1.5c0.3,0.6,0.5,1.3,0.5,2.1h-6.3c0,0.4,0.1,0.7,0.3,1.1
		c0.2,0.3,0.5,0.6,0.9,0.8c0.4,0.2,0.8,0.3,1.3,0.3c0.5,0,0.9-0.1,1.3-0.4c0.4-0.3,0.7-0.6,0.9-1l1.4,0.4c-0.2,0.4-0.5,0.8-0.8,1.2
		c-0.4,0.4-0.8,0.6-1.2,0.8s-1,0.3-1.6,0.3C242.4,131.3,241.7,131.1,241.1,130.8z M245.3,126.7c-0.1-0.5-0.4-1-0.7-1.3
		s-0.9-0.5-1.4-0.5c-0.6,0-1.1,0.2-1.4,0.5c-0.4,0.3-0.6,0.7-0.7,1.3H245.3z"/>
</g>
<g>
	<path class="st1" d="M251.4,131c-0.4-0.2-0.7-0.5-0.9-0.8c-0.2-0.4-0.3-0.8-0.3-1.2h1.4c0,0.3,0.1,0.5,0.3,0.7s0.5,0.2,0.8,0.2
		c0.3,0,0.5-0.1,0.7-0.2c0.2-0.2,0.3-0.4,0.3-0.6c0-0.2-0.1-0.3-0.2-0.5c-0.1-0.1-0.2-0.2-0.4-0.3c-0.2-0.1-0.4-0.2-0.7-0.3
		l-0.3-0.1c-0.4-0.2-0.8-0.3-1-0.4s-0.5-0.3-0.6-0.6c-0.2-0.3-0.3-0.6-0.3-1.1c0-0.4,0.1-0.8,0.3-1.1c0.2-0.3,0.5-0.6,0.9-0.8
		c0.4-0.2,0.8-0.3,1.2-0.3c0.5,0,0.9,0.1,1.3,0.3c0.4,0.2,0.7,0.5,0.9,0.8c0.2,0.4,0.3,0.8,0.3,1.2l-1.4,0c0-0.3-0.1-0.5-0.3-0.7
		s-0.4-0.3-0.8-0.3c-0.3,0-0.6,0.1-0.8,0.2c-0.2,0.2-0.3,0.4-0.3,0.6c0,0.2,0.1,0.4,0.2,0.6c0.1,0.1,0.3,0.2,0.5,0.3
		s0.4,0.2,0.8,0.2c0.4,0.1,0.8,0.2,1.1,0.4c0.3,0.1,0.6,0.4,0.8,0.7c0.2,0.3,0.3,0.7,0.3,1.2c0,0.4-0.1,0.8-0.3,1.1
		c-0.2,0.3-0.5,0.6-0.9,0.7c-0.4,0.2-0.8,0.3-1.2,0.3C252.2,131.3,251.8,131.2,251.4,131z"/>
</g>
<g>
	<path class="st1" d="M260.6,130.8c-0.4-0.2-0.8-0.6-1-1c-0.2-0.4-0.4-0.9-0.4-1.5v-3.1h-1.2v-1.4h1.2v-3.1h1.4v3.1h1.5v1.4h-1.5
		v2.9c0,0.6,0.2,1.1,0.5,1.3c0.2,0.2,0.5,0.2,0.9,0.2c0.2,0,0.3,0,0.4,0c0.1,0,0.2,0,0.2,0l0.4,1.4c0,0-0.1,0-0.2,0.1
		c-0.1,0-0.3,0.1-0.4,0.1c-0.2,0-0.3,0-0.4,0C261.5,131.1,261,131,260.6,130.8z"/>
</g>
<g>
	<path class="st1" d="M267.9,130.9c-0.5-0.3-0.8-0.6-1.1-1.1c-0.3-0.5-0.4-1-0.4-1.7l0-4.3h1.5l0,4.3c0,0.4,0.1,0.7,0.2,1
		c0.2,0.3,0.4,0.5,0.6,0.6c0.3,0.2,0.6,0.2,0.9,0.2c0.3,0,0.6-0.1,0.8-0.2s0.5-0.3,0.7-0.6c0.2-0.3,0.3-0.6,0.3-0.9v-4.4h1.4v7.3
		h-1.5l0-0.9c-0.2,0.3-0.5,0.6-0.9,0.8c-0.4,0.2-0.7,0.3-1.1,0.3C268.9,131.3,268.4,131.2,267.9,130.9z"/>
</g>
<g>
	<path class="st1" d="M279.7,131.3c-0.7,0-1.3-0.2-1.9-0.5c-0.5-0.4-1-0.8-1.2-1.4c-0.3-0.6-0.4-1.2-0.4-1.9c0-0.7,0.1-1.3,0.4-1.9
		s0.7-1.1,1.3-1.4c0.5-0.4,1.2-0.5,1.9-0.5c0.1,0,0.2,0,0.2,0c0.6,0,1.1,0.2,1.5,0.4s0.8,0.6,1.1,1.1v-4.4h1.4v10.4h-1.4v-1.5
		c-0.3,0.5-0.6,0.9-1,1.2c-0.4,0.3-0.9,0.4-1.5,0.5C279.8,131.3,279.7,131.3,279.7,131.3z M277.9,128.8c0.2,0.4,0.5,0.7,0.9,0.9
		c0.4,0.2,0.8,0.3,1.3,0.3c0.5,0,0.9-0.1,1.3-0.3c0.4-0.2,0.7-0.5,0.9-0.9c0.2-0.4,0.3-0.8,0.3-1.3c0-0.5-0.1-0.9-0.3-1.2
		s-0.5-0.6-0.9-0.9c-0.4-0.2-0.8-0.3-1.3-0.3c-0.5,0-0.9,0.1-1.3,0.3c-0.4,0.2-0.7,0.5-0.9,0.9s-0.3,0.8-0.3,1.3
		C277.6,128,277.7,128.4,277.9,128.8z"/>
</g>
<g>
	<path class="st1" d="M289,130.8c-0.6-0.3-1-0.8-1.4-1.4c-0.3-0.6-0.5-1.2-0.5-1.9c0-0.7,0.2-1.4,0.5-2c0.3-0.6,0.8-1,1.4-1.4
		c0.6-0.3,1.2-0.5,2-0.5c0.8,0,1.4,0.2,2,0.5c0.6,0.3,1,0.8,1.4,1.3c0.3,0.6,0.5,1.2,0.5,2c0,0.7-0.2,1.4-0.5,1.9
		c-0.3,0.6-0.8,1-1.4,1.4c-0.6,0.3-1.3,0.5-2,0.5C290.2,131.3,289.6,131.1,289,130.8z M288.9,128.8c0.2,0.4,0.5,0.7,0.9,0.9
		s0.8,0.3,1.2,0.3c0.5,0,0.9-0.1,1.2-0.3s0.7-0.5,0.9-0.9s0.3-0.8,0.3-1.3c0-0.5-0.1-1-0.3-1.3c-0.2-0.4-0.5-0.7-0.9-0.9
		c-0.4-0.2-0.8-0.3-1.2-0.3s-0.9,0.1-1.2,0.3c-0.4,0.2-0.7,0.5-0.9,0.9c-0.2,0.4-0.3,0.8-0.3,1.3C288.5,128,288.7,128.4,288.9,128.8
		z"/>
</g>
<path class="st2" d="M48,12.3c7.7,0,13.9,6.2,13.9,13.9c0,7.7-6.2,13.9-13.9,13.9c-7.7,0-13.9-6.2-13.9-13.9
	C34.1,18.6,40.3,12.3,48,12.3"/>
<path class="st2" d="M83.5,54.8c0.3-0.4,0.6-1.2,1.2-1.3c0.7-0.2,6.6,0.2,8,0.2c0.1,0,0.8,0,0.8,0.2c0,0.3-5.8,8.6-6.9,10.4
	c-0.7,1-1.2,0.9-2.3,0.9c-2.4,0.1-4.8,0.2-7.2,0.4c-0.9,0-0.8-0.1-0.3-0.8C79.1,61.5,81.3,58.1,83.5,54.8"/>
<path class="st2" d="M81.6,55.3c-1.6,2.4-3.3,4.8-4.9,7.3c-0.4,0.7-0.5,0.5-1.3,0.4c-0.3-0.1-1-0.2-1.3-0.3c-0.2-0.1,0-0.4,0.1-0.5
	c2.5-3.9,5.3-7.7,7.9-11.6c0.5-0.7,0.7-0.6,1.5-0.3c2.6,0.8,5.3,1.5,7.9,2.2c0.9,0.2-2.1-0.1-2.2-0.2c-1.5-0.1-2.9-0.3-4.4-0.4
	c-0.9-0.1-0.9,0.2-1.4,0.8C82.8,53.5,82.2,54.4,81.6,55.3"/>
<path class="st2" d="M81.3,45.4c0.4-0.6,0.6-0.5,1.1-0.1c2.4,1.6,4.8,3.1,7.1,4.8c1.8,1.3,1.6,1.1-0.3,0.4c-2.1-0.8-4.2-1.7-6.3-2.5
	c-0.7-0.3-0.6,0-1,0.6c-2.3,3.5-4.8,7-7.1,10.5l0,0.1c-0.4,0.6-0.6,0.5-1.2,0.3c-0.2-0.1-1-0.4-1.1-0.6
	C72.5,58.2,80.3,46.9,81.3,45.4"/>
<path class="st2" d="M84.3,131.3l11.8,0c30.4-65.4,13-67.2-44.4-63.3C51.3,93.8,124.5,22.3,84.3,131.3"/>
<path class="st2" d="M23.9,131.3c0.6-36,29.9-41.5,39.7,0l9.8,0c-17.5-99.1-49.5,36.1-49.5-83.5L14,48v83.3H23.9z"/>
<path class="st2" d="M52.3,55c-4.9,0.2-6.8,5-8,9.1c-18.1,61.1-16.5-2.7-0.9-14.3c11-8.2,32.6,17.2,27.3,13.4
	C66.2,60.1,57.5,54.8,52.3,55"/>
</svg>
